<?xml version="1.0" encoding="utf-8"?>
<!-- Generator: Adobe Illustrator 27.9.5, SVG Export Plug-In . SVG Version: 9.03 Build 54986)  -->
<svg version="1.1" id="Calque_1" xmlns="http://www.w3.org/2000/svg" xmlns:xlink="http://www.w3.org/1999/xlink" x="0px" y="0px"
	 viewBox="0 0 1919.7 216.2" style="enable-background:new 0 0 1919.7 216.2;" xml:space="preserve">
<style type="text/css">
	.st0{fill:#CCA605;}
</style>
<path class="st0" d="M1911.9,192.1c-4.8,3.3-10.6,6.1-16.4,5c-14.7-3-3-27.1-1.7-36.2c1.5-11.1-2.5-38.5,3.1-47.3
	c-13.6,21.3-27,42.5-40.5,63.9c-20.2-37.9-28.3-82.1-22.7-124.6c-20.7,34.9-34.9,73.5-41.9,113.3c-22.8-22.3-35.7-54.8-34.2-86.7
	c-16.9,29.6-28.8,62.2-34.9,95.8c-35.9-24.6-45.7-80.1-20.5-115.6c-31.1,29.4-53.8,67.7-64.5,109c-12.6-26.3-18.5-55.6-17.2-84.7
	c-23.2,23.3-38.7,53.9-44,86.2c-32.8-23.8-44.8-72-27.3-108.4c-29.9,25.1-51,60.9-58.2,99.3c-16.7-12.6-25.3-34.9-21.5-55.3
	c-14.6,21.2-20.8,48-17.2,73.6c-35.7-48-40.2-117.3-10.9-169.4c-35.6,31.1-55.1,79.7-51.8,127.1c-10.6-63.4-70.5-116-135-116.3
	c26.3,8.4,44.7,33.6,51.8,60.4s4.5,55.1,0.2,82.4c-9.6-23.2-28-42.5-50.5-53.3c4.1,21.8-0.3,45-12.4,63.7
	c0-26.3-12.9-52.3-33.9-68.2c-10.4,17.5-17.9,36.6-22.3,56.4c-12.7-56.2,2.5-118.3,40-162.1c-57.7,28.6-97.1,91.2-97.9,155.5
	c-15.2-23.8-23.2-52.1-22.2-80.4c-19.9,23.2-30.8,53.6-30.1,84c-25.1-8.1-42.5-44.5-37.2-70.5c-14.4,10.9-16.4,31.4-24.2,47.6
	c-7.8,16.4-31.9,28.8-42.7,14.2c-2.6-3.6-3.8-8.4-7.3-11.4c-1.8-1.5-3.8-2.3-6.1-2.6c-2.2,0.3-4.3,1-6.1,2.6
	c-3.5,3-4.6,7.8-7.3,11.4c-10.8,14.6-34.9,2.2-42.7-14.2c-7.8-16.4-9.9-36.7-24.2-47.6c5.3,26-12.1,62.4-37.2,70.5
	c0.7-30.4-10.3-60.9-30.1-84c0.8,28.3-6.9,56.6-22.2,80.4C789.3,91,749.9,28.5,692.2,0c37.6,43.8,52.9,105.7,40,162.1
	c-4.3-19.9-11.9-38.9-22.3-56.4c-21,15.9-33.9,41.9-33.9,68.2c-11.9-18.7-16.5-41.9-12.4-63.7c-22.7,10.8-41,30.1-50.5,53.3
	c-4.3-27.3-6.9-55.6,0.2-82.4c7.1-26.6,25.5-51.8,51.8-60.4C600.4,21,540.6,73.6,529.9,136.8c3.5-47.1-16-95.8-51.8-127.1
	c29.4,52.1,24.8,121.4-11.1,169.4c3.6-25.5-2.6-52.3-17.2-73.6c3.8,20.5-5,42.8-21.5,55.3c-7.3-38.4-28.1-74.3-58.2-99.3
	c17.5,36.4,5.5,84.5-27.3,108.4c-5.3-32.4-21-62.9-44-86.2c1.3,29.1-4.6,58.4-17.2,84.7c-10.8-41.4-33.4-79.7-64.5-109
	c25.3,35.4,15.6,91-20.5,115.6c-6-33.6-17.9-66-34.7-95.6c1.3,31.9-11.4,64.4-34.2,86.7c-6.9-39.9-21.3-78.6-41.9-113.3
	c5.6,42.5-2.5,86.7-22.7,124.6c-13.6-21.3-27-42.5-40.5-63.9c5.6,8.8,1.7,36.2,3.1,47.3c1.3,9.1,12.9,33.1-1.7,36.2
	c-5.8,1.2-11.4-1.7-16.4-5c-2.5-1.7-5.1-3.6-7.6-5.3v29.4h959.8h959.8v-29.4C1917,188.4,1914.5,190.2,1911.9,192.1z"/>
</svg>
