<?xml version="1.0" encoding="utf-8"?>
<!-- Generator: Adobe Illustrator 27.9.5, SVG Export Plug-In . SVG Version: 9.03 Build 54986)  -->
<svg version="1.1" id="Calque_1" xmlns="http://www.w3.org/2000/svg" xmlns:xlink="http://www.w3.org/1999/xlink" x="0px" y="0px"
	 viewBox="0 0 3848 358.9" style="enable-background:new 0 0 3848 358.9;" xml:space="preserve">
<style type="text/css">
	.st0{fill:#FFC312;}
</style>
<g>
	<g>
		<path class="st0" d="M3772.3,9c-61.7,10.4-119.6,35.6-177.4,58.9c-77.7,31.4-162.5,49.6-246.4,36.1
			c-70.5-11.3-136-33.6-208.9-20.6c-87.4,15.6-162.3,72.4-243.1,106.7c-48.6,20.6-97.7,35-151.3,28c-45.4-6-89.3-20.7-131.4-38.2
			c-77.6-32.2-165-84-251.4-65.2c-72.6,15.7-136.9,33.9-203.8-10.3C2107,70.3,2049.8,27.6,1990,9.7c-0.2-0.1-0.4-0.1-0.7-0.2
			c-42.6-12.7-88.1-12.7-130.7,0c-0.2,0.1-0.4,0.1-0.7,0.2c-59.8,17.9-117,60.6-168.7,94.7c-66.9,44.2-131.2,26.1-203.8,10.3
			c-86.4-18.8-173.9,33.1-251.4,65.2c-42.1,17.4-86,32.2-131.4,38.2c-53.6,7-102.7-7.3-151.3-28C870.5,155.8,795.7,99,708.2,83.4
			c-72.9-13-138.4,9.3-208.9,20.6c-83.9,13.4-168.7-4.8-246.4-36.1C195.3,44.6,137.4,19.4,75.7,9C50.5,4.8,25,2.3,0,3.7v355.2h1924
			h1924V3.7C3823,2.3,3797.5,4.8,3772.3,9z"/>
	</g>
</g>
</svg>
